<svg width="842" height="758" viewBox="0 0 842 758" fill="none" xmlns="http://www.w3.org/2000/svg">
<g clip-path="url(#clip0)">
<path d="M783.457 0.486511H410.917C390.412 0.486511 373.79 17.1014 373.79 37.597V541.316C373.79 561.811 390.412 578.426 410.917 578.426H783.457C803.962 578.426 820.585 561.811 820.585 541.316V37.597C820.585 17.1014 803.962 0.486511 783.457 0.486511Z" stroke="#3F3D56" stroke-miterlimit="10"/>
<path d="M793.816 60.295H396.665V518.617H793.816V60.295Z" stroke="#3F3D56" stroke-miterlimit="10"/>
<path d="M597.187 39.8914C602.563 39.8914 606.921 35.5353 606.921 30.1618C606.921 24.7883 602.563 20.4322 597.187 20.4322C591.811 20.4322 587.453 24.7883 587.453 30.1618C587.453 35.5353 591.811 39.8914 597.187 39.8914Z" stroke="#3F3D56" stroke-miterlimit="10"/>
<path d="M597.187 569.669C609.014 569.669 618.602 560.086 618.602 548.264C618.602 536.442 609.014 526.859 597.187 526.859C585.36 526.859 575.772 536.442 575.772 548.264C575.772 560.086 585.36 569.669 597.187 569.669Z" stroke="#3F3D56" stroke-miterlimit="10"/>
<path d="M585.01 110.497C576.444 110.497 567.962 112.183 560.048 115.459C552.135 118.736 544.944 123.538 538.887 129.593C532.83 135.647 528.025 142.834 524.747 150.744C521.469 158.654 519.782 167.133 519.782 175.694C519.782 211.702 588.116 344.511 588.116 344.511C588.116 344.511 650.238 211.702 650.238 175.694C650.238 158.403 643.366 141.82 631.133 129.593C618.901 117.366 602.31 110.497 585.01 110.497ZM585.01 219.16C578.253 219.16 571.647 217.157 566.028 213.404C560.409 209.652 556.03 204.318 553.444 198.078C550.858 191.837 550.181 184.971 551.5 178.346C552.818 171.721 556.072 165.636 560.85 160.86C565.629 156.084 571.717 152.831 578.344 151.513C584.972 150.196 591.842 150.872 598.085 153.457C604.329 156.042 609.665 160.419 613.419 166.035C617.173 171.651 619.177 178.254 619.177 185.008C619.177 194.066 615.577 202.752 609.17 209.157C602.762 215.562 594.072 219.16 585.01 219.16V219.16Z" fill="#FD3259"/>
<path d="M585.02 411.077C621.039 411.077 650.238 401.493 650.238 389.671C650.238 377.85 621.039 368.266 585.02 368.266C549 368.266 519.801 377.85 519.801 389.671C519.801 401.493 549 411.077 585.02 411.077Z" fill="#FD3259"/>
<path d="M352.258 93.3629C348.109 93.5972 344.107 94.9821 340.701 97.3625C337.295 99.7428 334.62 103.024 332.975 106.839C328.153 118.49 334.362 132.174 343.682 140.67C353.002 149.165 364.974 154.021 375.851 160.404C390.462 168.977 403.59 180.877 410.901 196.154C418.211 211.43 418.989 230.354 410.396 244.948C402.42 258.494 387.917 266.601 374.085 274.078" stroke="#3F3D56" stroke-miterlimit="10"/>
<path d="M364.542 102.648C373.95 102.648 381.577 98.9448 381.577 94.3774C381.577 89.8099 373.95 86.1072 364.542 86.1072C355.134 86.1072 347.508 89.8099 347.508 94.3774C347.508 98.9448 355.134 102.648 364.542 102.648Z" fill="#23CE6B"/>
<path d="M378.17 157.133C387.578 157.133 395.205 153.431 395.205 148.863C395.205 144.296 387.578 140.593 378.17 140.593C368.762 140.593 361.135 144.296 361.135 148.863C361.135 153.431 368.762 157.133 378.17 157.133Z" fill="#23CE6B"/>
<path d="M347.021 165.89C356.429 165.89 364.055 162.187 364.055 157.62C364.055 153.052 356.429 149.35 347.021 149.35C337.613 149.35 329.986 153.052 329.986 157.62C329.986 162.187 337.613 165.89 347.021 165.89Z" fill="#23CE6B"/>
<path d="M395.691 211.619C405.099 211.619 412.726 207.917 412.726 203.349C412.726 198.782 405.099 195.079 395.691 195.079C386.283 195.079 378.657 198.782 378.657 203.349C378.657 207.917 386.283 211.619 395.691 211.619Z" fill="#23CE6B"/>
<path d="M429.761 211.619C439.169 211.619 446.795 207.917 446.795 203.349C446.795 198.782 439.169 195.079 429.761 195.079C420.353 195.079 412.726 198.782 412.726 203.349C412.726 207.917 420.353 211.619 429.761 211.619Z" fill="#23CE6B"/>
<path d="M46.228 757.513H395.205" stroke="#3F3D56" stroke-miterlimit="10"/>
<path d="M33.4298 588.956C29.566 589.174 25.8394 590.464 22.6677 592.68C19.4961 594.897 17.0049 597.953 15.4735 601.505C10.9835 612.354 16.7647 625.097 25.4433 633.008C34.122 640.918 45.2703 645.44 55.3994 651.384C69.0045 659.367 81.2298 670.449 88.0372 684.674C94.8447 698.9 95.5687 716.521 87.5669 730.111C80.1399 742.725 66.635 750.274 53.755 757.237" stroke="#3F3D56" stroke-miterlimit="10"/>
<path d="M44.8684 597.602C53.6291 597.602 60.731 594.154 60.731 589.901C60.731 585.648 53.6291 582.2 44.8684 582.2C36.1078 582.2 29.0059 585.648 29.0059 589.901C29.0059 594.154 36.1078 597.602 44.8684 597.602Z" fill="#23CE6B"/>
<path d="M57.5585 648.339C66.3192 648.339 73.4211 644.891 73.4211 640.638C73.4211 636.384 66.3192 632.936 57.5585 632.936C48.7978 632.936 41.6959 636.384 41.6959 640.638C41.6959 644.891 48.7978 648.339 57.5585 648.339Z" fill="#23CE6B"/>
<path d="M28.5526 656.493C37.3133 656.493 44.4152 653.045 44.4152 648.792C44.4152 644.538 37.3133 641.091 28.5526 641.091C19.792 641.091 12.6901 644.538 12.6901 648.792C12.6901 653.045 19.792 656.493 28.5526 656.493Z" fill="#23CE6B"/>
<path d="M73.8743 699.076C82.6349 699.076 89.7369 695.628 89.7369 691.374C89.7369 687.121 82.6349 683.673 73.8743 683.673C65.1136 683.673 58.0117 687.121 58.0117 691.374C58.0117 695.628 65.1136 699.076 73.8743 699.076Z" fill="#23CE6B"/>
<path d="M105.599 699.076C114.36 699.076 121.462 695.628 121.462 691.374C121.462 687.121 114.36 683.673 105.599 683.673C96.8387 683.673 89.7368 687.121 89.7368 691.374C89.7368 695.628 96.8387 699.076 105.599 699.076Z" fill="#23CE6B"/>
<path d="M71.8929 620.071C75.0484 620.249 78.0918 621.302 80.682 623.112C83.2721 624.922 85.3066 627.418 86.5573 630.319C90.2241 639.179 85.5028 649.586 78.4152 656.046C71.3276 662.507 62.2232 666.199 53.9511 671.053C42.8402 677.573 32.8562 686.623 27.2968 698.241C21.7375 709.858 21.1461 724.249 27.681 735.347C33.7464 745.648 44.7753 751.814 55.2941 757.5" stroke="#3F3D56" stroke-miterlimit="10"/>
<path d="M62.5515 627.131C69.706 627.131 75.5059 624.316 75.5059 620.842C75.5059 617.369 69.706 614.553 62.5515 614.553C55.3969 614.553 49.597 617.369 49.597 620.842C49.597 624.316 55.3969 627.131 62.5515 627.131Z" fill="#23CE6B"/>
<path d="M52.1878 668.567C59.3424 668.567 65.1423 665.751 65.1423 662.277C65.1423 658.804 59.3424 655.988 52.1878 655.988C45.0333 655.988 39.2334 658.804 39.2334 662.277C39.2334 665.751 45.0333 668.567 52.1878 668.567Z" fill="#23CE6B"/>
<path d="M75.876 675.226C83.0305 675.226 88.8304 672.41 88.8304 668.936C88.8304 665.463 83.0305 662.647 75.876 662.647C68.7214 662.647 62.9215 665.463 62.9215 668.936C62.9215 672.41 68.7214 675.226 75.876 675.226Z" fill="#23CE6B"/>
<path d="M38.8634 710.002C46.0179 710.002 51.8178 707.186 51.8178 703.712C51.8178 700.239 46.0179 697.423 38.8634 697.423C31.7088 697.423 25.9089 700.239 25.9089 703.712C25.9089 707.186 31.7088 710.002 38.8634 710.002Z" fill="#23CE6B"/>
<path d="M12.9544 710.002C20.109 710.002 25.9089 707.186 25.9089 703.712C25.9089 700.239 20.109 697.423 12.9544 697.423C5.7999 697.423 0 700.239 0 703.712C0 707.186 5.7999 710.002 12.9544 710.002Z" fill="#23CE6B"/>
<path d="M126.393 717.564C126.393 717.564 135.457 722.094 141.802 723C148.147 723.906 151.716 717.491 150.385 715.262C149.054 713.034 154.492 714.846 158.118 723C158.118 723 173.527 741.12 182.592 742.026C191.656 742.932 191.727 755.198 187.124 755.617C182.139 756.07 173.527 759.241 162.65 755.617C151.773 751.992 141.802 742.026 137.27 742.026C132.738 742.026 117.329 734.778 121.861 731.154C126.393 727.53 126.393 717.564 126.393 717.564Z" fill="#3F3D56"/>
<path d="M215.731 738.034C220.358 738.39 225.013 738.104 229.562 737.186C235.79 735.673 236.721 728.392 234.658 726.817C232.594 725.241 238.317 724.906 244.712 731.132C244.712 731.132 265.749 742.241 274.503 739.719C283.256 737.198 287.877 748.561 283.758 750.657C276.773 754.485 269.009 756.675 261.053 757.06C249.607 757.731 236.627 754.853 232.419 756.534C228.21 758.216 211.21 757.203 214.073 752.156C216.935 747.109 215.731 738.034 215.731 738.034Z" fill="#3F3D56"/>
<path d="M200.322 305.865C219.845 305.865 235.673 290.045 235.673 270.53C235.673 251.016 219.845 235.196 200.322 235.196C180.798 235.196 164.971 251.016 164.971 270.53C164.971 290.045 180.798 305.865 200.322 305.865Z" fill="#FFC1C7"/>
<path d="M172.676 284.574C172.676 284.574 178.114 322.626 165.424 328.062C152.734 333.498 229.781 331.686 229.781 331.686C229.781 331.686 218.904 297.258 221.623 288.198C224.342 279.137 172.676 284.574 172.676 284.574Z" fill="#FFC1C7"/>
<path d="M159.985 501.111C159.985 501.111 157.266 569.968 154.547 577.216C151.828 584.465 149.108 633.389 149.108 633.389L125.541 722.179L147.295 729.427C147.295 729.427 177.208 676.878 180.833 670.536C184.459 664.194 213.465 562.72 213.465 562.72C213.465 562.72 210.746 625.235 210.746 646.074C210.746 666.912 216.184 743.017 216.184 743.017L233.407 741.205L256.067 645.168C256.067 645.168 288.699 515.607 266.945 501.111C245.19 486.615 159.985 501.111 159.985 501.111Z" fill="#2F2E41"/>
<path d="M292.324 522.856C292.324 522.856 293.231 575.404 282.354 567.25C271.477 559.096 282.354 518.326 282.354 518.326L292.324 522.856Z" fill="#FFC1C7"/>
<path d="M141.857 504.735C141.857 504.735 142.763 557.284 131.886 549.13C121.009 540.976 131.886 500.205 131.886 500.205L141.857 504.735Z" fill="#FFC1C7"/>
<path d="M275.102 351.619C275.102 351.619 256.974 330.78 241.564 333.498C226.155 336.216 141.857 335.31 141.857 335.31C141.857 335.31 113.757 370.645 121.009 377.893C128.26 385.141 151.827 513.795 151.827 513.795C151.827 513.795 214.371 505.641 236.126 505.641C257.88 505.641 266.944 502.017 266.944 502.017C266.944 502.017 237.939 444.032 251.535 417.758C265.132 391.483 285.073 363.397 285.073 363.397L275.102 351.619Z" fill="#6C63FF"/>
<path d="M269.664 357.961L285.073 363.397C285.073 363.397 294.137 395.107 294.137 420.476C294.137 445.844 295.044 458.528 298.67 467.589C302.295 476.649 314.079 519.232 307.734 528.292C304.231 533.449 299.95 538.033 295.044 541.882L274.196 540.07C274.196 540.07 273.289 510.171 267.851 507.453C262.412 504.735 255.161 487.521 255.161 487.521C255.161 487.521 237.939 432.254 248.816 414.134C259.693 396.013 269.664 357.961 269.664 357.961Z" fill="#6C63FF"/>
<path d="M211.652 391.483C211.652 391.483 220.716 351.619 203.494 353.431C186.272 355.243 162.705 356.149 156.36 356.149C150.015 356.149 113.757 351.619 108.319 375.175C102.88 398.731 95.6287 427.724 111.038 445.844C111.038 445.844 116.477 525.574 137.325 531.01C158.173 536.446 213.465 542.788 233.406 516.513C253.348 490.239 245.19 461.246 245.19 461.246H236.126L211.652 391.483Z" fill="#3F3D56"/>
<path d="M241.564 463.059L248.815 414.134L245.19 464.871L241.564 463.059Z" fill="#3F3D56"/>
<path opacity="0.1" d="M120.102 452.186C120.102 452.186 135.512 459.434 167.237 454.904V468.495L120.102 464.871V452.186Z" fill="black"/>
<path d="M203.041 352.978L226.608 340.294L206.667 357.508L203.041 352.978Z" fill="#3F3D56"/>
<path d="M253.348 339.841C253.348 339.841 271.477 346.183 271.477 339.841C271.477 333.498 255.161 328.062 245.19 324.438C235.219 320.814 188.085 315.378 180.833 312.66C173.582 309.942 139.137 305.412 136.418 316.284C133.699 327.156 132.792 349.807 146.389 352.525C159.985 355.243 195.336 347.995 213.465 349.807C231.594 351.619 253.348 339.841 253.348 339.841Z" fill="#6C63FF"/>
<path opacity="0.1" d="M253.348 339.841C253.348 339.841 271.477 346.183 271.477 339.841C271.477 333.498 255.161 328.062 245.19 324.438C235.219 320.814 188.085 315.378 180.833 312.66C173.582 309.942 139.137 305.412 136.418 316.284C133.699 327.156 132.792 349.807 146.389 352.525C159.985 355.243 195.336 347.995 213.465 349.807C231.594 351.619 253.348 339.841 253.348 339.841Z" fill="black"/>
<path d="M126.901 360.226L133.061 347.291L134.153 362.944L126.901 360.226Z" fill="#3F3D56"/>
<path d="M194.195 307.001C212.474 307.001 227.291 289.794 227.291 268.569C227.291 247.343 212.474 230.137 194.195 230.137C175.917 230.137 161.099 247.343 161.099 268.569C161.099 289.794 175.917 307.001 194.195 307.001Z" fill="#2F2E41"/>
<path d="M200.036 269.055C218.314 269.055 233.132 259.69 233.132 248.137C233.132 236.584 218.314 227.218 200.036 227.218C181.758 227.218 166.94 236.584 166.94 248.137C166.94 259.69 181.758 269.055 200.036 269.055Z" fill="#2F2E41"/>
<path d="M225.831 285.596C227.713 285.596 229.238 282.982 229.238 279.758C229.238 276.534 227.713 273.92 225.831 273.92C223.95 273.92 222.424 276.534 222.424 279.758C222.424 282.982 223.95 285.596 225.831 285.596Z" fill="#FFC1C7"/>
<path d="M221.079 242.869C224.561 240.965 227.535 237.521 229.762 232.817C229.98 233.863 230.038 234.935 229.936 235.999C231.381 235.836 232.786 235.413 234.08 234.75L233.77 238.141C236.271 236.61 238.57 234.77 240.612 232.665C241.165 237.613 240.336 242.617 238.215 247.122C236.409 250.686 233.955 253.005 231.526 255.288" fill="#2F2E41"/>
</g>
<defs>
<clipPath id="clip0">
<rect width="842" height="758" fill="white"/>
</clipPath>
</defs>
</svg>
