<svg width="255" height="36" viewBox="0 0 255 36" fill="none" xmlns="http://www.w3.org/2000/svg">
<path d="M36.6199 30.5881C36.6199 30.5881 32.6242 23.7209 31.9075 22.4892C32.723 22.2404 33.5916 22.0208 33.9526 21.3975C34.5541 20.3591 33.4834 18.6556 33.7645 17.5426C34.0541 16.397 35.7639 15.4057 35.7639 14.2413C35.7639 13.1069 33.9963 11.7815 33.7064 10.6427C33.4233 9.52982 34.4909 7.82448 33.8874 6.78731C33.2839 5.75004 31.2739 5.83526 30.4465 5.03907C29.5951 4.21972 29.5977 2.21503 28.5709 1.66594C27.5398 1.11481 25.8642 2.22865 24.7194 1.9648C23.5876 1.70398 22.5765 0 21.3944 0C20.1948 0 18.2867 1.93289 17.9874 2.00245C16.8432 2.26844 15.1654 1.15732 14.1355 1.71079C13.1096 2.26172 13.1159 4.26661 12.2661 5.08732C11.44 5.88497 9.42989 5.80345 8.82827 6.84189C8.22674 7.88013 9.29748 9.58323 9.01642 10.6969C8.73458 11.8133 6.96532 12.9446 6.96532 14.2358C6.96532 15.4003 8.67932 16.3884 8.9707 17.5334C9.2539 18.6463 8.18637 20.3514 8.78984 21.389C9.11838 21.9537 9.86379 22.1856 10.6082 22.4085C10.6951 22.4344 10.8594 22.5316 10.7481 22.6938C10.2388 23.5729 6.13965 30.6475 6.13965 30.6475C5.81355 31.2102 6.07836 31.6925 6.72794 31.7199L9.90757 31.8525C10.5572 31.8798 11.372 32.3518 11.7188 32.9018L13.4154 35.5941C13.7622 36.1441 14.3123 36.1338 14.6383 35.5712C14.6383 35.5712 19.3856 27.3751 19.3876 27.3728C19.4828 27.2615 19.5786 27.2844 19.6244 27.3233C20.1438 27.7655 20.8679 28.2067 21.4722 28.2067C22.0649 28.2067 22.6137 27.7914 23.1566 27.3282C23.2007 27.2906 23.3082 27.2134 23.3868 27.3736C23.3881 27.3761 28.1302 35.5273 28.1302 35.5273C28.457 36.0892 29.0073 36.0987 29.353 35.5481L31.0449 32.8526C31.3906 32.3022 32.2046 31.8283 32.8542 31.8L36.0335 31.6615C36.6828 31.633 36.9468 31.15 36.6199 30.5881ZM26.6492 23.2156C23.1336 25.2609 18.9138 25.0417 15.6907 23.0087C10.9679 19.9836 9.41393 13.7257 12.2531 8.82547C15.1246 3.86871 21.4368 2.11968 26.4382 4.84362C26.4645 4.85792 26.4905 4.87271 26.5166 4.8873C26.5536 4.90783 26.5906 4.92865 26.6275 4.94966C28.1704 5.83925 29.5084 7.13034 30.4665 8.77712C33.3946 13.8103 31.6823 20.2875 26.6492 23.2156Z" fill="black"/>
<path d="M25.8452 6.43096C25.8307 6.4225 25.8159 6.41462 25.8013 6.40625C23.1296 4.85997 19.7244 4.74693 16.8704 6.40732C12.6354 8.8712 11.1943 14.3211 13.6581 18.5561C14.41 19.8485 15.4402 20.8801 16.6289 21.6204C16.73 21.6845 16.8322 21.7474 16.9367 21.8079C21.1764 24.2641 26.6233 22.8132 29.0794 18.5737C31.5354 14.3341 30.0849 8.88716 25.8452 6.43096ZM26.9059 13.3618L25.4214 14.8087C24.9616 15.2568 24.6742 16.1413 24.7829 16.7742L25.1333 18.8173C25.2419 19.4502 24.8658 19.7234 24.2974 19.4247L22.4625 18.46C21.8941 18.1612 20.9642 18.1612 20.3958 18.46L18.561 19.4247C17.9926 19.7234 17.6164 19.4502 17.725 18.8173L18.0754 16.7742C18.184 16.1413 17.8966 15.2568 17.4368 14.8087L15.9524 13.3618C15.4926 12.9137 15.6364 12.4714 16.2717 12.379L18.3231 12.0809C18.9585 11.9886 19.7109 11.4419 19.9951 10.8662L20.9125 9.00731C21.1967 8.43157 21.6617 8.43157 21.9458 9.00731L22.8633 10.8662C23.1475 11.4419 23.8998 11.9886 24.5353 12.0809L26.5867 12.379C27.2219 12.4714 27.3656 12.9137 26.9059 13.3618Z" fill="black"/>
</svg>
