<svg width="255" height="36" viewBox="0 0 255 36" fill="none" xmlns="http://www.w3.org/2000/svg">
<g clip-path="url(#clip0)">
<path d="M34.669 7.56256L33.1537 9.07787C34.933 11.6893 35.8906 14.7709 35.8906 18C35.8906 22.2446 34.2377 26.235 31.2363 29.2364C28.235 32.2377 24.2445 33.8907 20 33.8907C16.7708 33.8907 13.6892 32.933 11.0778 31.1537L9.5625 32.669C12.5895 34.8326 16.2048 36 20 36C24.8079 36 29.3281 34.1277 32.7279 30.728C36.1276 27.3282 38 22.808 38 18C38 14.2049 36.8325 10.5896 34.669 7.56256Z" fill="black"/>
<path d="M6.84629 26.9222C5.06696 24.3108 4.10938 21.2292 4.10938 18C4.10938 13.7554 5.76228 9.765 8.76364 6.76364C11.765 3.76228 15.7554 2.10938 20 2.10938C23.2292 2.10938 26.3108 3.06703 28.9222 4.84629L30.4375 3.33098C27.4104 1.16747 23.7951 0 20 0C15.192 0 10.6719 1.87235 7.27203 5.27203C3.87235 8.67178 2 13.192 2 18C2 21.7951 3.16747 25.4104 5.33098 28.4375L6.84629 26.9222Z" fill="black"/>
<path d="M18.9452 28.9571V18.7618H8.06506L18.9452 28.9571Z" fill="black"/>
<path d="M19.9928 16.44L27.0335 8.69525H12.8219L19.9928 16.44Z" fill="black"/>
<path d="M21.0547 18.7618V28.9571L31.9348 18.7618H21.0547Z" fill="black"/>
<path d="M17.3148 16.6524L11.0967 9.93683L7.82288 16.6524H17.3148Z" fill="black"/>
<path d="M22.6505 16.6524H32.1771L28.8517 9.83099L22.6505 16.6524Z" fill="black"/>
</g>
<defs>
<clipPath id="clip0">
<rect width="36" height="36" fill="white" transform="translate(2)"/>
</clipPath>
</defs>
</svg>
