<svg width="490" height="402" viewBox="0 0 490 402" fill="none" xmlns="http://www.w3.org/2000/svg">
<path opacity="0.3" d="M463.227 127.771C478.013 127.771 490 115.788 490 101.005C490 86.2224 478.013 74.2387 463.227 74.2387C448.44 74.2387 436.454 86.2224 436.454 101.005C436.454 115.788 448.44 127.771 463.227 127.771Z" fill="#CCCCCC"/>
<path d="M463.227 116.156C471.596 116.156 478.381 109.373 478.381 101.005C478.381 92.6375 471.596 85.8543 463.227 85.8543C454.857 85.8543 448.072 92.6375 448.072 101.005C448.072 109.373 454.857 116.156 463.227 116.156Z" fill="#167FFC"/>
<path opacity="0.3" d="M445.546 53.5327C460.333 53.5327 472.32 41.549 472.32 26.7663C472.32 11.9837 460.333 0 445.546 0C430.76 0 418.773 11.9837 418.773 26.7663C418.773 41.549 430.76 53.5327 445.546 53.5327Z" fill="#CCCCCC"/>
<path d="M445.546 41.9171C453.916 41.9171 460.701 35.1339 460.701 26.7663C460.701 18.3988 453.916 11.6156 445.546 11.6156C437.177 11.6156 430.392 18.3988 430.392 26.7663C430.392 35.1339 437.177 41.9171 445.546 41.9171Z" fill="#167FFC"/>
<path opacity="0.3" d="M26.7732 154.538C41.5596 154.538 53.5464 142.554 53.5464 127.771C53.5464 112.989 41.5596 101.005 26.7732 101.005C11.9868 101.005 0 112.989 0 127.771C0 142.554 11.9868 154.538 26.7732 154.538Z" fill="#CCCCCC"/>
<path d="M26.7732 142.922C35.1428 142.922 41.9278 136.139 41.9278 127.771C41.9278 119.404 35.1428 112.621 26.7732 112.621C18.4035 112.621 11.6185 119.404 11.6185 127.771C11.6185 136.139 18.4035 142.922 26.7732 142.922Z" fill="#167FFC"/>
<path opacity="0.3" d="M50.5155 362.608C65.3019 362.608 77.2887 350.624 77.2887 335.842C77.2887 321.059 65.3019 309.075 50.5155 309.075C35.7291 309.075 23.7423 321.059 23.7423 335.842C23.7423 350.624 35.7291 362.608 50.5155 362.608Z" fill="#CCCCCC"/>
<path d="M50.5155 350.992C58.8852 350.992 65.6701 344.209 65.6701 335.842C65.6701 327.474 58.8852 320.691 50.5155 320.691C42.1458 320.691 35.3608 327.474 35.3608 335.842C35.3608 344.209 42.1458 350.992 50.5155 350.992Z" fill="#167FFC"/>
<path opacity="0.3" d="M86.8866 77.2688C101.673 77.2688 113.66 65.2851 113.66 50.5025C113.66 35.7199 101.673 23.7362 86.8866 23.7362C72.1002 23.7362 60.1134 35.7199 60.1134 50.5025C60.1134 65.2851 72.1002 77.2688 86.8866 77.2688Z" fill="#CCCCCC"/>
<path d="M86.8866 65.6533C95.2563 65.6533 102.041 58.87 102.041 50.5025C102.041 42.135 95.2563 35.3517 86.8866 35.3517C78.5169 35.3517 71.7319 42.135 71.7319 50.5025C71.7319 58.87 78.5169 65.6533 86.8866 65.6533Z" fill="#167FFC"/>
<path d="M438.474 217.666C438.474 307.732 373.86 382.713 288.443 398.803C288.11 398.869 287.771 398.929 287.433 398.99C282.124 399.965 276.735 400.704 271.268 401.207C270.93 401.242 270.596 401.273 270.258 401.298C264.933 401.763 259.545 401.997 254.093 402C253.754 402 253.421 402 253.082 401.995C247.637 401.97 242.249 401.707 236.917 401.207C236.579 401.182 236.246 401.146 235.907 401.111C230.446 400.581 225.058 399.812 219.742 398.803C219.404 398.743 219.065 398.677 218.732 398.611C133.815 382.122 69.7113 307.378 69.7113 217.666C69.7113 115.863 152.264 33.3317 254.093 33.3317C355.922 33.3317 438.474 115.863 438.474 217.666Z" fill="#3F3D56"/>
<path d="M288.948 138.629H287.938V288.369H288.948V138.629Z" fill="#6C63FF"/>
<path d="M288.948 74.4419H287.938V118.617H288.948V74.4419Z" fill="#6C63FF"/>
<path d="M219.742 69.8323H218.732V288.369H219.742V69.8323Z" fill="#6C63FF"/>
<path d="M236.918 50.5025H235.907V99.7205H236.918V50.5025Z" fill="#6C63FF"/>
<path d="M236.918 123.226H235.907V273.036H236.918V123.226Z" fill="#6C63FF"/>
<path d="M236.918 296.323V401.207C236.579 401.182 236.246 401.146 235.907 401.111V296.323H236.918Z" fill="#6C63FF"/>
<path d="M254.093 34.3417H253.082V173.399H254.093V34.3417Z" fill="#6C63FF"/>
<path d="M254.093 192.677V402C253.754 402 253.421 402 253.082 401.995V192.677H254.093Z" fill="#6C63FF"/>
<path d="M271.268 50.5025H270.258V243.422H271.268V50.5025Z" fill="#6C63FF"/>
<path d="M271.268 264.128H270.258V372.291H271.268V264.128Z" fill="#6C63FF"/>
<path d="M271.268 395.197V401.207C270.93 401.242 270.596 401.273 270.258 401.298V395.197H271.268Z" fill="#6C63FF"/>
<path d="M288.443 314.631V398.803C288.11 398.869 287.771 398.929 287.433 398.99V314.631H288.443Z" fill="#6C63FF"/>
<path d="M219.742 314.631V398.803C219.404 398.743 219.065 398.677 218.732 398.611V314.631H219.742Z" fill="#6C63FF"/>
<path d="M202.567 89.3894H201.557V120.908H202.567V89.3894Z" fill="#6C63FF"/>
<path d="M202.567 144.576H201.557V288.369H202.567V144.576Z" fill="#6C63FF"/>
<path d="M185.392 101.005H184.381V288.369H185.392V101.005Z" fill="#6C63FF"/>
<path d="M168.216 116.156H167.206V177.216H168.216V116.156Z" fill="#6C63FF"/>
<path d="M168.216 197.449H167.206V288.369H168.216V197.449Z" fill="#6C63FF"/>
<path d="M151.041 132.317H150.031V234.097H151.041V132.317Z" fill="#6C63FF"/>
<path d="M151.041 253.018H150.031V288.369H151.041V253.018Z" fill="#6C63FF"/>
<path d="M133.866 147.467H132.856V181.606H133.866V147.467Z" fill="#6C63FF"/>
<path d="M133.866 203.939H132.856V288.369H133.866V203.939Z" fill="#6C63FF"/>
<path d="M116.691 155.548H115.68V288.369H116.691V155.548Z" fill="#6C63FF"/>
<path d="M99.5154 191.91H98.5051V235.815H99.5154V191.91Z" fill="#6C63FF"/>
<path d="M99.5154 255.857H98.5051V288.369H99.5154V255.857Z" fill="#6C63FF"/>
<path d="M298.755 89.3894H298.231V279.784H298.755V89.3894Z" fill="#6C63FF"/>
<path d="M322.794 101.005H321.784V131.024H322.794V101.005Z" fill="#6C63FF"/>
<path d="M322.794 151.066H321.784V288.369H322.794V151.066Z" fill="#6C63FF"/>
<path d="M339.969 129.791H338.959V147.467H339.969V129.791Z" fill="#6C63FF"/>
<path d="M339.969 167.291H338.959V255.093H339.969V167.291Z" fill="#6C63FF"/>
<path d="M339.969 273.036H338.959V288.369H339.969V273.036Z" fill="#6C63FF"/>
<path d="M357.144 132.317H356.134V288.369H357.144V132.317Z" fill="#6C63FF"/>
<path d="M374.32 147.467H373.309V197.449H374.32V147.467Z" fill="#6C63FF"/>
<path d="M374.32 216.346H373.309V288.369H374.32V216.346Z" fill="#6C63FF"/>
<path d="M391.495 155.548H390.485V288.369H391.495V155.548Z" fill="#6C63FF"/>
<path d="M219.237 315.136C218.238 315.136 217.261 314.839 216.431 314.285C215.6 313.73 214.952 312.941 214.57 312.018C214.188 311.095 214.088 310.08 214.283 309.1C214.478 308.12 214.959 307.221 215.665 306.514C216.372 305.808 217.272 305.327 218.252 305.132C219.231 304.937 220.247 305.037 221.17 305.42C222.093 305.802 222.882 306.449 223.437 307.28C223.992 308.11 224.289 309.087 224.289 310.085C224.287 311.424 223.754 312.708 222.807 313.655C221.86 314.602 220.576 315.134 219.237 315.136ZM219.237 306.045C218.438 306.045 217.656 306.282 216.992 306.726C216.327 307.17 215.809 307.801 215.503 308.539C215.198 309.278 215.118 310.09 215.274 310.874C215.429 311.657 215.814 312.377 216.38 312.942C216.945 313.507 217.665 313.892 218.449 314.048C219.233 314.204 220.045 314.124 220.784 313.818C221.522 313.512 222.153 312.994 222.597 312.33C223.041 311.666 223.278 310.884 223.278 310.085C223.277 309.014 222.851 307.987 222.093 307.23C221.336 306.472 220.309 306.046 219.237 306.045Z" fill="#6C63FF"/>
<path d="M236.412 288.874C235.413 288.874 234.437 288.578 233.606 288.023C232.775 287.468 232.128 286.68 231.745 285.757C231.363 284.834 231.263 283.818 231.458 282.839C231.653 281.859 232.134 280.959 232.84 280.253C233.547 279.547 234.447 279.066 235.427 278.871C236.407 278.676 237.422 278.776 238.346 279.158C239.269 279.541 240.058 280.188 240.613 281.018C241.168 281.849 241.464 282.825 241.464 283.824C241.462 285.163 240.93 286.447 239.983 287.393C239.036 288.34 237.752 288.873 236.412 288.874ZM236.412 279.784C235.613 279.784 234.832 280.021 234.167 280.465C233.503 280.909 232.985 281.54 232.679 282.278C232.373 283.016 232.293 283.829 232.449 284.612C232.605 285.396 232.99 286.116 233.555 286.681C234.12 287.246 234.84 287.631 235.624 287.787C236.408 287.943 237.22 287.863 237.959 287.557C238.697 287.251 239.328 286.733 239.773 286.069C240.217 285.404 240.454 284.623 240.454 283.824C240.452 282.753 240.026 281.726 239.269 280.969C238.511 280.211 237.484 279.785 236.412 279.784Z" fill="#6C63FF"/>
<path d="M288.443 315.136C287.444 315.136 286.468 314.839 285.637 314.285C284.806 313.73 284.159 312.941 283.776 312.018C283.394 311.095 283.294 310.08 283.489 309.1C283.684 308.12 284.165 307.221 284.871 306.514C285.578 305.808 286.478 305.327 287.458 305.132C288.438 304.937 289.453 305.037 290.376 305.42C291.299 305.802 292.088 306.449 292.644 307.28C293.199 308.11 293.495 309.087 293.495 310.085C293.493 311.424 292.961 312.708 292.014 313.655C291.067 314.602 289.783 315.134 288.443 315.136ZM288.443 306.045C287.644 306.045 286.863 306.282 286.198 306.726C285.533 307.17 285.016 307.801 284.71 308.539C284.404 309.278 284.324 310.09 284.48 310.874C284.636 311.657 285.021 312.377 285.586 312.942C286.151 313.507 286.871 313.892 287.655 314.048C288.439 314.204 289.251 314.124 289.99 313.818C290.728 313.512 291.359 312.994 291.803 312.33C292.248 311.666 292.485 310.884 292.485 310.085C292.483 309.014 292.057 307.987 291.3 307.23C290.542 306.472 289.515 306.046 288.443 306.045Z" fill="#6C63FF"/>
<path d="M270.763 378.264C269.764 378.264 268.787 378.56 267.956 379.115C267.126 379.67 266.478 380.459 266.096 381.381C265.714 382.304 265.613 383.32 265.808 384.299C266.003 385.279 266.484 386.179 267.191 386.885C267.897 387.591 268.797 388.072 269.777 388.267C270.757 388.462 271.773 388.362 272.696 387.98C273.619 387.598 274.408 386.95 274.963 386.12C275.518 385.289 275.814 384.313 275.814 383.314C275.812 381.975 275.279 380.692 274.332 379.745C273.386 378.799 272.102 378.266 270.763 378.264ZM270.763 387.354C269.964 387.354 269.182 387.117 268.518 386.673C267.853 386.229 267.335 385.598 267.029 384.86C266.723 384.122 266.643 383.31 266.799 382.526C266.955 381.742 267.34 381.022 267.905 380.457C268.47 379.892 269.191 379.507 269.974 379.351C270.758 379.196 271.571 379.276 272.309 379.581C273.048 379.887 273.679 380.405 274.123 381.069C274.567 381.734 274.804 382.515 274.804 383.314C274.803 384.385 274.376 385.412 273.619 386.169C272.861 386.927 271.834 387.353 270.763 387.354Z" fill="#6C63FF"/>
<path d="M270.763 258.068C269.764 258.068 268.787 257.772 267.956 257.217C267.126 256.662 266.478 255.873 266.096 254.95C265.714 254.027 265.613 253.012 265.808 252.032C266.003 251.053 266.484 250.153 267.191 249.447C267.897 248.74 268.797 248.259 269.777 248.064C270.757 247.87 271.773 247.97 272.696 248.352C273.619 248.734 274.408 249.381 274.963 250.212C275.518 251.042 275.814 252.019 275.814 253.018C275.813 254.357 275.28 255.64 274.333 256.587C273.386 257.534 272.102 258.066 270.763 258.068ZM270.763 248.977C269.964 248.977 269.182 249.214 268.518 249.658C267.853 250.102 267.335 250.733 267.029 251.471C266.723 252.21 266.643 253.022 266.799 253.806C266.955 254.59 267.34 255.309 267.905 255.874C268.47 256.439 269.191 256.824 269.974 256.98C270.758 257.136 271.571 257.056 272.309 256.75C273.048 256.444 273.679 255.927 274.123 255.262C274.567 254.598 274.804 253.817 274.804 253.018C274.803 251.946 274.377 250.92 273.619 250.162C272.861 249.405 271.834 248.979 270.763 248.977Z" fill="#6C63FF"/>
<path d="M253.588 187.869C252.589 187.869 251.612 187.573 250.781 187.018C249.95 186.463 249.303 185.675 248.921 184.752C248.538 183.829 248.438 182.814 248.633 181.834C248.828 180.854 249.309 179.954 250.016 179.248C250.722 178.542 251.622 178.061 252.602 177.866C253.582 177.671 254.598 177.771 255.521 178.153C256.444 178.536 257.233 179.183 257.788 180.013C258.343 180.844 258.639 181.82 258.639 182.819C258.638 184.158 258.105 185.442 257.158 186.389C256.211 187.335 254.927 187.868 253.588 187.869Z" fill="#6C63FF"/>
<path d="M287.938 132.822C286.939 132.822 285.962 132.525 285.132 131.971C284.301 131.416 283.653 130.627 283.271 129.704C282.889 128.781 282.789 127.766 282.984 126.786C283.179 125.806 283.66 124.907 284.366 124.2C285.073 123.494 285.973 123.013 286.953 122.818C287.933 122.623 288.948 122.723 289.871 123.106C290.794 123.488 291.583 124.135 292.138 124.966C292.693 125.796 292.99 126.773 292.99 127.771C292.988 129.11 292.455 130.394 291.508 131.341C290.561 132.288 289.277 132.82 287.938 132.822ZM287.938 123.731C287.139 123.731 286.358 123.968 285.693 124.412C285.028 124.856 284.51 125.487 284.205 126.225C283.899 126.964 283.819 127.776 283.975 128.56C284.131 129.343 284.515 130.063 285.081 130.628C285.646 131.193 286.366 131.578 287.15 131.734C287.934 131.89 288.746 131.81 289.485 131.504C290.223 131.198 290.854 130.68 291.298 130.016C291.742 129.352 291.979 128.57 291.979 127.771C291.978 126.7 291.552 125.673 290.794 124.916C290.037 124.158 289.01 123.732 287.938 123.731Z" fill="#6C63FF"/>
<path d="M167.711 192.415C166.712 192.415 165.736 192.118 164.905 191.563C164.074 191.009 163.427 190.22 163.044 189.297C162.662 188.374 162.562 187.359 162.757 186.379C162.952 185.399 163.433 184.5 164.139 183.793C164.846 183.087 165.746 182.606 166.726 182.411C167.706 182.216 168.721 182.316 169.645 182.699C170.568 183.081 171.356 183.728 171.912 184.559C172.467 185.389 172.763 186.365 172.763 187.364C172.761 188.703 172.229 189.987 171.282 190.934C170.335 191.88 169.051 192.413 167.711 192.415ZM167.711 183.324C166.912 183.324 166.131 183.561 165.466 184.005C164.802 184.449 164.284 185.08 163.978 185.818C163.672 186.556 163.592 187.369 163.748 188.153C163.904 188.936 164.289 189.656 164.854 190.221C165.419 190.786 166.139 191.171 166.923 191.327C167.707 191.483 168.519 191.403 169.258 191.097C169.996 190.791 170.627 190.273 171.072 189.609C171.516 188.945 171.753 188.163 171.753 187.364C171.751 186.293 171.325 185.266 170.568 184.509C169.81 183.751 168.783 183.325 167.711 183.324Z" fill="#6C63FF"/>
<path d="M133.361 196.96C132.362 196.96 131.385 196.664 130.554 196.109C129.724 195.554 129.076 194.765 128.694 193.842C128.312 192.919 128.211 191.904 128.406 190.924C128.601 189.945 129.082 189.045 129.789 188.339C130.495 187.632 131.395 187.151 132.375 186.956C133.355 186.761 134.371 186.862 135.294 187.244C136.217 187.626 137.006 188.273 137.561 189.104C138.116 189.934 138.412 190.911 138.412 191.91C138.411 193.249 137.878 194.532 136.931 195.479C135.984 196.426 134.7 196.958 133.361 196.96ZM133.361 187.869C132.562 187.869 131.78 188.106 131.116 188.55C130.451 188.994 129.933 189.625 129.627 190.363C129.321 191.102 129.241 191.914 129.397 192.698C129.553 193.482 129.938 194.201 130.503 194.766C131.068 195.331 131.789 195.716 132.572 195.872C133.356 196.028 134.169 195.948 134.907 195.642C135.646 195.336 136.277 194.819 136.721 194.154C137.165 193.49 137.402 192.709 137.402 191.91C137.401 190.838 136.975 189.811 136.217 189.054C135.459 188.297 134.432 187.871 133.361 187.869Z" fill="#6C63FF"/>
<path d="M150.536 248.472C149.537 248.472 148.56 248.176 147.73 247.621C146.899 247.066 146.251 246.278 145.869 245.355C145.487 244.432 145.387 243.416 145.582 242.437C145.776 241.457 146.258 240.557 146.964 239.851C147.671 239.145 148.571 238.664 149.551 238.469C150.53 238.274 151.546 238.374 152.469 238.756C153.392 239.139 154.181 239.786 154.736 240.616C155.291 241.447 155.588 242.423 155.588 243.422C155.586 244.761 155.053 246.045 154.106 246.991C153.159 247.938 151.875 248.471 150.536 248.472Z" fill="#6C63FF"/>
<path d="M288.443 74.7437C287.444 74.7437 286.468 74.4475 285.637 73.8926C284.806 73.3377 284.159 72.5489 283.776 71.6261C283.394 70.7033 283.294 69.6879 283.489 68.7082C283.684 67.7286 284.165 66.8287 284.871 66.1224C285.578 65.4161 286.478 64.9351 287.458 64.7403C288.438 64.5454 289.453 64.6454 290.376 65.0276C291.299 65.4099 292.088 66.0572 292.644 66.8877C293.199 67.7182 293.495 68.6946 293.495 69.6935C293.493 71.0324 292.961 72.3161 292.014 73.2628C291.067 74.2096 289.783 74.7422 288.443 74.7437ZM288.443 65.6533C287.644 65.6533 286.863 65.8902 286.198 66.3342C285.533 66.7781 285.016 67.4091 284.71 68.1474C284.404 68.8856 284.324 69.698 284.48 70.4817C284.636 71.2654 285.021 71.9853 285.586 72.5503C286.151 73.1154 286.871 73.5001 287.655 73.656C288.439 73.8119 289.251 73.7319 289.99 73.4261C290.728 73.1203 291.359 72.6025 291.803 71.9381C292.248 71.2737 292.485 70.4925 292.485 69.6935C292.483 68.6223 292.057 67.5954 291.3 66.838C290.542 66.0806 289.515 65.6545 288.443 65.6533Z" fill="#6C63FF"/>
<path d="M202.062 137.367C201.063 137.367 200.086 137.071 199.255 136.516C198.425 135.961 197.777 135.172 197.395 134.249C197.013 133.326 196.912 132.311 197.107 131.331C197.302 130.352 197.783 129.452 198.49 128.746C199.196 128.039 200.096 127.558 201.076 127.363C202.056 127.169 203.072 127.269 203.995 127.651C204.918 128.033 205.707 128.68 206.262 129.511C206.817 130.341 207.113 131.318 207.113 132.317C207.112 133.656 206.579 134.939 205.632 135.886C204.685 136.833 203.401 137.365 202.062 137.367ZM202.062 128.276C201.263 128.276 200.481 128.513 199.817 128.957C199.152 129.401 198.634 130.032 198.328 130.77C198.022 131.509 197.942 132.321 198.098 133.105C198.254 133.889 198.639 134.608 199.204 135.173C199.769 135.738 200.49 136.123 201.273 136.279C202.057 136.435 202.87 136.355 203.608 136.049C204.347 135.743 204.978 135.226 205.422 134.561C205.866 133.897 206.103 133.116 206.103 132.317C206.102 131.245 205.676 130.219 204.918 129.461C204.16 128.704 203.133 128.278 202.062 128.276Z" fill="#6C63FF"/>
<path d="M184.887 101.51C183.887 101.51 182.911 101.214 182.08 100.659C181.249 100.104 180.602 99.3152 180.22 98.3924C179.837 97.4696 179.737 96.4542 179.932 95.4745C180.127 94.4949 180.608 93.595 181.315 92.8887C182.021 92.1824 182.921 91.7015 183.901 91.5066C184.881 91.3117 185.897 91.4117 186.82 91.794C187.743 92.1762 188.532 92.8235 189.087 93.654C189.642 94.4845 189.938 95.4609 189.938 96.4598C189.937 97.7987 189.404 99.0824 188.457 100.029C187.51 100.976 186.226 101.509 184.887 101.51ZM184.887 92.4196C184.087 92.4196 183.306 92.6565 182.641 93.1005C181.977 93.5444 181.459 94.1754 181.153 94.9137C180.847 95.6519 180.767 96.4643 180.923 97.248C181.079 98.0317 181.464 98.7516 182.029 99.3166C182.594 99.8817 183.314 100.266 184.098 100.422C184.882 100.578 185.695 100.498 186.433 100.192C187.172 99.8867 187.803 99.3688 188.247 98.7044C188.691 98.04 188.928 97.2589 188.928 96.4598C188.927 95.3886 188.5 94.3617 187.743 93.6043C186.985 92.8469 185.958 92.4208 184.887 92.4196Z" fill="#6C63FF"/>
<path d="M99.0103 250.997C98.0112 250.997 97.0345 250.701 96.2038 250.146C95.3731 249.591 94.7256 248.803 94.3433 247.88C93.9609 246.957 93.8609 245.942 94.0558 244.962C94.2507 243.982 94.7318 243.082 95.4383 242.376C96.1448 241.67 97.0449 241.189 98.0248 240.994C99.0047 240.799 100.02 240.899 100.943 241.281C101.866 241.664 102.655 242.311 103.211 243.141C103.766 243.972 104.062 244.948 104.062 245.947C104.06 247.286 103.528 248.57 102.581 249.517C101.634 250.463 100.35 250.996 99.0103 250.997ZM99.0103 241.907C98.211 241.907 97.4297 242.144 96.7651 242.588C96.1005 243.032 95.5826 243.663 95.2767 244.401C94.9708 245.139 94.8908 245.952 95.0467 246.735C95.2026 247.519 95.5875 248.239 96.1527 248.804C96.7179 249.369 97.438 249.754 98.2219 249.91C99.0058 250.066 99.8184 249.986 100.557 249.68C101.295 249.374 101.926 248.856 102.37 248.192C102.815 247.527 103.052 246.746 103.052 245.947C103.05 244.876 102.624 243.849 101.867 243.092C101.109 242.334 100.082 241.908 99.0103 241.907Z" fill="#6C63FF"/>
<path d="M407.155 191.91H406.144V235.815H407.155V191.91Z" fill="#6C63FF"/>
<path d="M407.155 255.857H406.144V288.369H407.155V255.857Z" fill="#6C63FF"/>
<path d="M406.65 250.997C405.65 250.997 404.674 250.701 403.843 250.146C403.012 249.591 402.365 248.803 401.983 247.88C401.6 246.957 401.5 245.942 401.695 244.962C401.89 243.982 402.371 243.082 403.078 242.376C403.784 241.67 404.684 241.189 405.664 240.994C406.644 240.799 407.66 240.899 408.583 241.281C409.506 241.664 410.295 242.311 410.85 243.141C411.405 243.972 411.701 244.948 411.701 245.947C411.699 247.286 411.167 248.57 410.22 249.517C409.273 250.463 407.989 250.996 406.65 250.997ZM406.65 241.907C405.85 241.907 405.069 242.144 404.404 242.588C403.74 243.032 403.222 243.663 402.916 244.401C402.61 245.139 402.53 245.952 402.686 246.735C402.842 247.519 403.227 248.239 403.792 248.804C404.357 249.369 405.077 249.754 405.861 249.91C406.645 250.066 407.458 249.986 408.196 249.68C408.934 249.374 409.566 248.856 410.01 248.192C410.454 247.527 410.691 246.746 410.691 245.947C410.69 244.876 410.263 243.849 409.506 243.092C408.748 242.334 407.721 241.908 406.65 241.907Z" fill="#6C63FF"/>
<path d="M373.814 211.101C372.815 211.101 371.839 210.804 371.008 210.249C370.177 209.694 369.53 208.906 369.147 207.983C368.765 207.06 368.665 206.045 368.86 205.065C369.055 204.085 369.536 203.185 370.242 202.479C370.949 201.773 371.849 201.292 372.829 201.097C373.809 200.902 374.825 201.002 375.748 201.384C376.671 201.767 377.46 202.414 378.015 203.244C378.57 204.075 378.866 205.051 378.866 206.05C378.864 207.389 378.332 208.673 377.385 209.62C376.438 210.566 375.154 211.099 373.814 211.101ZM373.814 202.01C373.015 202.01 372.234 202.247 371.569 202.691C370.905 203.135 370.387 203.766 370.081 204.504C369.775 205.242 369.695 206.055 369.851 206.838C370.007 207.622 370.392 208.342 370.957 208.907C371.522 209.472 372.242 209.857 373.026 210.013C373.81 210.169 374.622 210.089 375.361 209.783C376.099 209.477 376.731 208.959 377.175 208.295C377.619 207.63 377.856 206.849 377.856 206.05C377.854 204.979 377.428 203.952 376.671 203.195C375.913 202.437 374.886 202.011 373.814 202.01Z" fill="#6C63FF"/>
<path d="M339.464 269.178C338.465 269.178 337.488 268.882 336.657 268.327C335.827 267.772 335.179 266.984 334.797 266.061C334.415 265.138 334.315 264.123 334.509 263.143C334.704 262.163 335.185 261.263 335.892 260.557C336.598 259.851 337.498 259.37 338.478 259.175C339.458 258.98 340.474 259.08 341.397 259.462C342.32 259.845 343.109 260.492 343.664 261.322C344.219 262.153 344.515 263.129 344.515 264.128C344.514 265.467 343.981 266.751 343.034 267.697C342.087 268.644 340.803 269.177 339.464 269.178ZM339.464 260.088C338.665 260.088 337.883 260.325 337.219 260.769C336.554 261.213 336.036 261.844 335.73 262.582C335.424 263.32 335.344 264.133 335.5 264.916C335.656 265.7 336.041 266.42 336.606 266.985C337.171 267.55 337.892 267.935 338.675 268.091C339.459 268.247 340.272 268.167 341.01 267.861C341.749 267.555 342.38 267.037 342.824 266.373C343.268 265.708 343.505 264.927 343.505 264.128C343.504 263.057 343.078 262.03 342.32 261.273C341.563 260.515 340.535 260.089 339.464 260.088Z" fill="#6C63FF"/>
<path d="M236.412 116.661C235.413 116.661 234.437 116.365 233.606 115.81C232.775 115.255 232.128 114.466 231.745 113.543C231.363 112.62 231.263 111.605 231.458 110.625C231.653 109.646 232.134 108.746 232.84 108.039C233.547 107.333 234.447 106.852 235.427 106.657C236.407 106.462 237.422 106.562 238.346 106.945C239.269 107.327 240.058 107.974 240.613 108.805C241.168 109.635 241.464 110.612 241.464 111.611C241.462 112.95 240.93 114.233 239.983 115.18C239.036 116.127 237.752 116.659 236.412 116.661Z" fill="#6C63FF"/>
<path d="M339.464 162.618C338.465 162.618 337.488 162.322 336.657 161.767C335.827 161.212 335.179 160.423 334.797 159.501C334.415 158.578 334.315 157.562 334.509 156.583C334.704 155.603 335.185 154.703 335.892 153.997C336.598 153.29 337.498 152.809 338.478 152.615C339.458 152.42 340.474 152.52 341.397 152.902C342.32 153.284 343.109 153.932 343.664 154.762C344.219 155.593 344.515 156.569 344.515 157.568C344.514 158.907 343.981 160.19 343.034 161.137C342.087 162.084 340.803 162.617 339.464 162.618ZM339.464 153.528C338.665 153.528 337.883 153.765 337.219 154.209C336.554 154.652 336.036 155.283 335.73 156.022C335.424 156.76 335.344 157.572 335.5 158.356C335.656 159.14 336.041 159.86 336.606 160.425C337.171 160.99 337.892 161.375 338.675 161.53C339.459 161.686 340.272 161.606 341.01 161.301C341.749 160.995 342.38 160.477 342.824 159.812C343.268 159.148 343.505 158.367 343.505 157.568C343.504 156.497 343.078 155.47 342.32 154.712C341.563 153.955 340.535 153.529 339.464 153.528Z" fill="#6C63FF"/>
<path d="M373.814 147.972C372.815 147.972 371.839 147.676 371.008 147.121C370.177 146.566 369.53 145.778 369.147 144.855C368.765 143.932 368.665 142.917 368.86 141.937C369.055 140.957 369.536 140.057 370.242 139.351C370.949 138.645 371.849 138.164 372.829 137.969C373.809 137.774 374.825 137.874 375.748 138.256C376.671 138.639 377.46 139.286 378.015 140.116C378.57 140.947 378.866 141.923 378.866 142.922C378.864 144.261 378.332 145.545 377.385 146.491C376.438 147.438 375.154 147.971 373.814 147.972Z" fill="#6C63FF"/>
<path d="M322.289 145.447C321.29 145.447 320.313 145.151 319.482 144.596C318.651 144.041 318.004 143.252 317.622 142.33C317.239 141.407 317.139 140.391 317.334 139.412C317.529 138.432 318.01 137.532 318.717 136.826C319.423 136.12 320.323 135.639 321.303 135.444C322.283 135.249 323.299 135.349 324.222 135.731C325.145 136.113 325.934 136.761 326.489 137.591C327.044 138.422 327.34 139.398 327.34 140.397C327.339 141.736 326.806 143.02 325.859 143.966C324.912 144.913 323.628 145.446 322.289 145.447Z" fill="#6C63FF"/>
<path d="M463.732 145.456L373.301 143.932L373.318 142.922L462.722 144.429V101.005H463.732V145.456Z" fill="#2F2E41"/>
<path d="M322.755 140.592L321.822 140.202L369.437 26.2613H445.546V27.2713H370.11L322.755 140.592Z" fill="#2F2E41"/>
<path d="M254.093 183.324H26.2681V128.276H27.2784V182.314H254.093V183.324Z" fill="#2F2E41"/>
<path d="M236.412 112.116H85.3711V50.5025H86.3814V111.106H236.412V112.116Z" fill="#2F2E41"/>
<path d="M151.041 336.347H50.5155V335.337H150.031V242.917H151.041V336.347Z" fill="#2F2E41"/>
</svg>
